<svg
    id="leaf"
    viewBox="0 0 64.41 117"
    width="100%"
    height="100%"
    version="1.1"
    xmlns="http://www.w3.org/2000/svg"
    xmlns:svg="http://www.w3.org/2000/svg">
    <path
        fill="#34df96"
        d="m 44.56,53.875 c -1.9,1 -0.81,-3 0,-8.84 0.965473,-6.546306 -1.111555,-13.175121 -5.64,-18 C 27.027857,14.657746 13.092091,6.01344 5.5135525,2.1603262 2.1564908,0.4535141 1.6396092,0.81917778 0.41427275,1.4386104 -0.57352011,1.9379599 -0.13711034,3.4918053 0.5123872,6.8756215 1.9081255,14.147276 5.0396751,26.414851 8.8476563,40.623125 9.637303,43.535751 11.497351,45.914708 14.16,47.335 c 7.47,3.93 15.44,5.29 13,7 -2.137699,1.524561 -7.949378,1.013808 -11.776044,-1.209975 -0.864629,-0.50246 -2.417094,-1.074464 -2.840831,-0.203775 -1.119511,1.408647 0.238312,4.016985 1.010077,6.010275 1.077541,2.783037 3.198951,5.149558 4.486798,7.843475 6.74,10 23.73,13 20.16,15.33 C 36.243046,83.337156 31.888557,81.405608 27.950153,80.020696 26.998139,79.685927 25.383787,79.155054 24.89,79.675 c -0.69588,0.732746 0.173161,2.395404 0.677919,3.216046 C 35.318209,98.743201 45.489383,103.979 54.17,101.545 c 0.389613,-0.10777 1.193071,4.05754 3.953115,10.58802 0.446454,1.05634 0.793374,2.06814 1.507373,3.30273 0.141209,0.24416 0.842287,1.11596 1.103221,1.21828 0.586634,0.23004 0.705753,0.24544 1.455726,0.22097 0,0 1.245639,0.0811 1.477497,-0.33146 0.211758,-0.37676 0.08903,-1.96993 -0.01588,-2.42734 -0.318551,-1.38889 -0.430461,-1.80835 -0.881583,-2.88821 -2.779534,-6.65336 -4.605391,-11.550848 -4.203223,-11.832365 9.5,-6.93 7.76,-28.6 -5.21,-54 C 52.97842,44.662734 52.538824,43.492539 51.951628,42.634746 51.208122,41.548609 50.59151,41.37391 50.013142,41.493233 49.250778,41.650517 48.80774,42.677677 48.599969,43.541336 47.52132,48.025062 46.5207,52.815388 44.56,53.875 Z"
        id="path2" />
</svg>
