<svg
    id="flamingo"
    viewBox="0 0 98.816043 158.13324"
    version="1.1"
    width="98.816048"
    height="158.13324"
    xmlns="http://www.w3.org/2000/svg"
    xmlns:svg="http://www.w3.org/2000/svg">
    <path
        fill="#fe6183"
        d="m 98.253455,18.7915 -0.579822,-1.818532 v 0 C 100.15105,8.539196 93.140482,0 82.756399,0 H 79.830933 C 68.057147,0.01877 59.568757,11.292831 62.805254,22.613054 l 9.540706,33.260692 c 1.80039,8.30351 -10.43219,9.565607 -10.305016,1.449555 V 53.528104 C 61.954852,41.919344 52.565271,32.529771 40.95651,32.443671 c -0.395332,0 -2.161153,0 -2.635553,0.158133 C 19.870498,34.341549 4.9669943,49.552712 1.2613385,68.307733 0.7005617,71.145929 0.65939582,74.015755 0.65895392,76.984534 0.65828878,81.453032 0.67421861,85.895955 2.0030219,90.162305 L 18.290746,76.694623 H 34.10407 L 10.542218,96.461279 c -1.7547209,1.417432 -0.7267828,4.253121 1.528621,4.216891 h 30.572426 v 57.45507 h 23.983542 c 0,-2.73648 -2.218358,-4.95483 -4.954842,-4.95483 H 46.965574 v -52.50025 h 14.785458 v 17.60551 0 c 2.742552,0.0148 4.969548,-2.21229 4.954841,-4.95485 V 101.3107 c 0,-2.736484 -2.218359,-4.954843 -4.954841,-4.954843 H 46.965574 V 76.694623 H 67.443829 C 78.040446,76.680391 85.685469,66.539451 82.782753,56.348146 L 72.609515,20.899944 C 71.045737,15.499252 75.1045,10.109532 80.727022,10.120529 v 0 c 4.672399,0 8.460128,3.787728 8.460128,8.460128 v 9.856972 c 0.0046,1.46764 -0.29149,2.920666 -0.869733,4.269597 l -0.76431,1.792176 4.032397,-1.581332 c 5.611843,-2.201196 8.535426,-8.395024 6.667951,-14.12657 z M 42.643265,96.355857 H 17.341947 L 41.061934,76.694623 h 1.71311 v 19.661234 z"
        id="path2"
        style="stroke-width:2.63555"
    />
</svg>
