<svg
    id="flower"
    viewBox="0 0 558.61006 647.80847"
    version="1.1"
    width="558.61005"
    height="647.80847"
    xmlns="http://www.w3.org/2000/svg"
    xmlns:svg="http://www.w3.org/2000/svg">
    <path
        fill="#2873f0"
        d="m 528.06685,228.59418 c -9.25452,1.65039 -21.91778,2.9306 -31.54248,-0.0925 a 6.1696798,6.1696798 0 0 1 0,-11.84579 c 21.59387,-7.03343 65.30606,-29.92294 61.89731,-99.42439 a 6.2776492,6.2776492 0 0 0 -3.4396,-5.27507 c -13.4499,-6.70953 -65.36776,-31.403671 -85.2187,-22.858664 -22.87409,9.856063 -24.67872,41.043794 -43.68133,39.393404 -21.50134,-1.8509 -8.06686,-26.22114 11.75324,-39.516798 a 6.1696798,6.1696798 0 0 0 -2.12854,-11.197969 c -16.33423,-3.74808 -43.28031,-5.10541 -64.47316,17.460194 -32.71472,34.827843 1.18767,75.223823 -9.25452,77.737963 -15.93319,3.8252 -18.50904,-30.47822 -18.7404,-49.18777 a 6.1696798,6.1696798 0 0 0 -10.10285,-4.76608 c -31.60418,24.67872 -54.47827,77.69169 -14.51417,113.86144 a 155.12117,155.12117 0 0 1 21.59388,23.27512 c -30.53992,32.06691 -44.73018,76.67369 -51.39343,108.84857 a 340.64344,340.64344 0 0 0 -7.06429,62.73022 h -9.99488 c 0.66324,-10.1337 3.62469,-58.92044 3.40875,-110.31387 -0.30848,-73.58886 -6.8175,-119.27534 -19.34195,-135.96432 15.4242,-18.72498 26.35996,-16.3188 38.40626,-34.39596 C 311.78873,120.7328 307.54707,77.822676 268.493,51.663234 a 6.1696798,6.1696798 0 0 0 -9.67097,6.06171 c 3.08484,21.593879 6.37019,62.452586 -14.89978,59.614526 C 228.74484,115.30348 295.08432,20.460078 184.56993,0.11555934 A 6.1696798,6.1696798 0 0 0 177.89125,8.984474 c 4.05657,8.406189 8.69925,20.313671 8.37534,30.401097 a 6.1696798,6.1696798 0 0 1 -11.39848,3.208234 C 162.23569,23.683696 128.44127,-12.33181 62.425695,9.7093713 a 6.1696798,6.1696798 0 0 0 -4.164534,4.7352297 c -2.838052,14.745534 -12.663267,71.398619 0.894604,88.210999 15.640138,19.38821 46.149205,12.74038 49.696775,31.54248 3.99486,21.20828 -23.136304,14.80724 -41.22889,-0.69409 a 6.1696798,6.1696798 0 0 0 -10.21082,5.04372 c 0.77121,16.73525 6.694103,43.06436 34.133754,57.42429 42.339426,22.14915 72.138986,-21.37794 77.383206,-11.93833 7.95889,14.32908 -24.38566,26.02063 -42.33942,31.26485 a 6.1696798,6.1696798 0 0 0 -1.88176,11.02831 c 32.39082,23.78411 89.46036,31.58876 113.58381,-16.62729 a 176.14436,176.14436 0 0 1 12.78666,-21.96406 c 7.92804,12.33936 16.22626,45.45512 16.59644,129.73294 0.21594,52.0721 -2.85348,101.49123 -3.42417,110.31388 h -20.56046 a 196.13412,196.13412 0 0 0 -12.47818,-46.16463 c -12.41648,-29.70701 -30.67873,-46.2726 -53.0284,-48.43199 3.90233,-16.04117 11.39849,-18.04631 13.35736,-32.94609 2.79178,-21.20827 -11.95375,-45.8253 -42.324,-51.40886 a 6.6478299,6.6478299 0 0 0 -7.12598,9.57843 c 7.43446,14.59129 18.35479,38.83814 8.69925,38.69932 -10.67355,-0.13882 4.85862,-69.54772 -87.594035,-47.01296 A 6.6324057,6.6324057 0 0 0 59.849854,260.985 c 0.09255,0.1234 0.200514,0.23137 0.308484,0.35476 a 6.6478299,6.6478299 0 0 1 -7.41904,10.62727 C 41.448784,267.33977 24.497589,268.06471 1.993682,289.96707 a 6.6169815,6.6169815 0 0 0 -1.69666189,6.69411 C 3.5669504,307.21133 14.410162,336.2551 37.57731,346.99034 c 15.809804,7.31107 25.650443,-8.31364 33.655603,2.3599 8.005159,10.67355 -6.478164,15.51675 -21.300819,13.26481 a 6.6632541,6.6632541 0 0 0 -6.601558,10.30337 c 6.46274,9.48588 17.768678,20.05146 36.123475,20.54503 33.408819,0.83291 38.668469,-35.67617 44.884419,-31.37282 8.37534,5.81492 -3.91774,20.17485 -13.5116,29.49107 a 6.6632541,6.6632541 0 0 0 3.99487,11.41391 c 26.99235,2.57584 60.7405,-10.79694 60.97186,-46.2726 a 128.88461,128.88461 0 0 1 1.018,-16.22626 c 44.73018,3.54757 57.39345,74.1287 59.3369,87.22385 H 161.156 a 4.6272598,4.6272598 0 0 0 -4.53472,4.99744 l 20.35995,210.9722 a 4.6272598,4.6272598 0 0 0 4.53471,4.11826 h 169.31144 a 4.6272598,4.6272598 0 0 0 4.55014,-4.11826 l 20.35994,-210.9722 a 4.6272598,4.6272598 0 0 0 -4.53471,-4.99744 h -82.0259 a 338.91593,338.91593 0 0 1 6.89462,-61.23407 c 6.32392,-30.8484 19.80467,-73.2341 48.30859,-103.94368 9.70182,16.48847 6.55529,26.05147 19.40365,40.99752 20.653,23.96921 63.11582,31.43452 98.80742,0.83291 a 6.1696798,6.1696798 0 0 0 -3.22366,-10.93576 c -21.671,-2.77636 -61.86646,-10.65812 -53.414,-30.38567 6.03086,-14.06687 79.55802,75.33179 128.85376,-25.65045 a 6.1696798,6.1696798 0 0 0 -6.74038,-8.80722 z M 178.10719,151.47319 c -1.54242,8.37534 -15.96404,10.79694 -25.66587,9.02315 -9.70182,-1.77378 -25.97435,-11.81493 -24.43193,-20.12858 1.54242,-8.31364 20.34452,-11.9846 30.04634,-10.22624 9.70182,1.75836 21.59388,12.89463 20.05146,21.28539 z m 242.96199,16.65813 c -4.31877,8.86892 -14.0206,13.03345 -21.68642,9.25452 -7.66583,-3.77893 -10.39591,-13.88178 -6.09256,-22.81239 4.30335,-8.93061 14.03602,-13.03345 21.70185,-9.25452 7.66582,3.77893 10.39591,13.86636 6.07713,22.81239 z"
        id="path2" />
</svg>
