<svg
    id="keyhole"
    viewBox="0 0 2000.66 1995"
    version="1.1"
    width="100%"
    height="100%"
    xmlns="http://www.w3.org/2000/svg"
    xmlns:svg="http://www.w3.org/2000/svg">
    <path
        id="rect4527"
        fill="#a67ee5"
        d="M 3.6660156,2.6582031 V 1996.2812 H 2002.9492 V 2.6582031 Z M 1003.5957,916.39062 c 8.7317,-0.0129 13.5609,1.15383 22.0859,5.33594 5.0998,2.50186 7.6912,4.34786 11.6661,8.3086 9.1288,9.09634 13.156,18.13634 13.7636,30.90039 0.4237,8.90167 -0.6136,13.77233 -4.8008,22.55468 -2.2869,4.79675 -3.9831,7.09635 -8.7851,11.89844 l -5.9531,5.95113 9.8632,40.3223 c 5.4244,22.1774 9.8614,40.4504 9.8614,40.6055 0,0.1551 -21.5927,0.2812 -47.9844,0.2812 h -47.98438 l 3.6543,-15.0254 c 2.0104,-8.2643 6.47578,-26.5284 9.92188,-40.5859 l 6.26562,-25.5586 -5.30078,-5.1992 c -6.1403,-6.02438 -9.66279,-11.52773 -12.18359,-19.03712 -3.8634,-11.50872 -2.99208,-23.20041 2.57812,-34.59961 2.3478,-4.80486 4.14882,-7.22305 8.97852,-12.05274 9.8209,-9.82092 20.19649,-14.07877 34.35351,-14.09961 z" />
</svg>
