<svg
   id="question"
   viewBox="0 0 72.712303 74.034355"
   version="1.1"
   width="72.712303"
   height="74.034355"
   xmlns="http://www.w3.org/2000/svg"
   xmlns:svg="http://www.w3.org/2000/svg">
  <path
     fill="#3b7bf2"
     d="M 0,21.77403 C 0,5.9756296 21.668267,0 35.853777,0 c 16.71061,0 36.858529,5.9756296 36.858529,21.152671 0,13.775677 -16.903006,13.231168 -23.796754,17.01468 -5.559906,3.051455 -7.998355,9.518702 -6.782076,16.512304 H 29.574078 c -1.930181,-8.513951 0.60814,-19.553 16.300777,-24.100824 10.126842,-2.948154 13.973983,-3.966127 13.973983,-7.495978 0,-6.491227 -14.065528,-9.348619 -24.404894,-9.254294 -8.500376,0.07755 -23.818892,2.128514 -23.796755,11.541426 0.0036,1.538954 2.121107,4.842687 0.608139,4.561044 C 8.3729325,29.208312 0.60813929,27.762881 0.60813929,27.762881 0.21718862,25.790217 0.01356998,23.785017 0,21.77403 Z m 29.468315,45.372481 c -0.01815,-3.878008 2.917248,-6.891971 6.795295,-6.887839 3.872445,0.0041 6.800159,3.015433 6.782076,6.887839 -0.018,3.856723 -2.925312,6.883793 -6.782076,6.887837 -3.862287,0.0041 -6.777218,-3.025592 -6.795295,-6.887837 z"
     id="path2" />
</svg>
