<svg
    id="snowflake"
    viewBox="0 0 71 74.75"
    width="100%"
    height="100%"
    version="1.1"
    xmlns="http://www.w3.org/2000/svg"
    xmlns:svg="http://www.w3.org/2000/svg">
    <path
        fill="#3b7bf2"
        d="m 67,41.77 -8.51,2.28 c -0.445453,0.119346 -0.920509,0.06039 -1.32,-0.17 l -8.67,-5 c -1.156399,-0.666897 -1.156399,-2.333103 0,-3 l 8.67,-5 c 0.399491,-0.230387 0.874679,-0.289834 1.32,-0.17 L 67,33 c 0.922587,0.248264 1.860692,-0.307695 2.11,-1.23 L 70.94,25 c 0.249232,-0.922023 -0.297571,-1.872274 -1.22,-2.12 L 65.14,21.65 C 64.219979,21.40292 63.670891,20.459474 63.92,19.54 L 65.15,15 c 0.249889,-0.922353 -0.306844,-1.873093 -1.23,-2.12 l -6.73,-1.8 c -0.922682,-0.24678 -1.871812,0.297695 -2.12,1.22 l -2.29,8.51 c -0.118832,0.441598 -0.403849,0.821539 -0.8,1.05 l -8.67,5 c -1.151015,0.663792 -2.59,-0.171296 -2.59,-1.5 v -10 c 0,-0.456097 0.177232,-0.89775 0.5,-1.22 l 6.23,-6.22 c 0.675876,-0.6747915 0.673283,-1.7726204 0,-2.45 L 42.52,0.51 c -0.674884,-0.67899052 -1.77306,-0.67694024 -2.45,0 l -3.35,3.35 c -0.673039,0.6730386 -1.766961,0.6730386 -2.44,0 L 30.93,0.51 c -0.67694,-0.67694024 -1.772373,-0.67625264 -2.45,0 l -4.93,4.92 c -0.676019,0.6746482 -0.675876,1.7752085 0,2.45 l 6.23,6.22 c 0.322768,0.32225 0.5,0.763903 0.5,1.22 v 10 c 0,1.328704 -1.438654,2.163218 -2.59,1.5 l -8.68,-5 c -0.397045,-0.228712 -0.681419,-0.607403 -0.8,-1.05 l -2.28,-8.51 c -0.247177,-0.922576 -1.197318,-1.46678 -2.12,-1.22 l -6.73,1.8 C 6.1382592,13.091877 5.5971566,14.058518 5.85,15 l 1.23,4.58 c 0.2470799,0.920021 -0.2989789,1.866673 -1.22,2.11 L 1.28,22.9 C 0.36576511,23.141534 -0.18558824,24.086846 0.06,25 l 1.81,6.73 C 2.1236121,32.672989 3.0567694,33.25271 4,33 l 8.51,-2.28 c 0.445453,-0.119346 0.920509,-0.06039 1.32,0.17 l 8.67,5 c 1.156399,0.666897 1.156399,2.333103 0,3 l -8.67,5 c -0.399491,0.230387 -0.874679,0.289834 -1.32,0.17 L 4,41.77 C 3.0680861,41.519226 2.120643,42.068051 1.87,43 l -1.81,6.73 c -0.24805856,0.922339 0.2970686,1.874154 1.22,2.12 l 4.58,1.22 c 0.9229314,0.245846 1.4677264,1.197571 1.22,2.12 l -1.23,4.58 c -0.2478537,0.922902 0.3068439,1.873093 1.23,2.12 l 6.73,1.8 c 0.922682,0.24678 1.871735,-0.297716 2.12,-1.22 L 18.21,54 c 0.119103,-0.442457 0.402955,-0.821288 0.8,-1.05 l 8.68,-5 c 1.151346,-0.663218 2.59,0.171296 2.59,1.5 v 10 c 0,0.456097 -0.177232,0.89775 -0.5,1.22 l -6.23,6.22 c -0.675876,0.674792 -0.676019,1.775352 0,2.45 l 4.93,4.92 c 0.677627,0.676253 1.77306,0.67694 2.45,0 l 3.35,-3.35 c 0.673039,-0.673039 1.766961,-0.673039 2.44,0 l 3.35,3.35 c 0.67694,0.67694 1.772373,0.676253 2.45,0 l 4.93,-4.92 c 0.676019,-0.674648 0.675876,-1.775208 0,-2.45 l -6.23,-6.22 c -0.322768,-0.32225 -0.5,-0.763903 -0.5,-1.22 v -10 c 0,-1.328704 1.438985,-2.163792 2.59,-1.5 l 8.67,5 c 0.396151,0.228461 0.681168,0.608402 0.8,1.05 l 2.29,8.51 c 0.248188,0.922305 1.197318,1.46678 2.12,1.22 l 6.73,-1.8 c 0.923156,-0.246907 1.477854,-1.197098 1.23,-2.12 l -1.23,-4.58 c -0.247726,-0.922429 0.297069,-1.874154 1.22,-2.12 l 4.58,-1.22 c 0.922931,-0.245846 1.466691,-1.197294 1.22,-2.12 L 69.13,43 C 68.880739,42.06768 67.932188,41.520248 67,41.77 Z"
        id="path218" />
</svg>
