<svg xmlns="http://www.w3.org/2000/svg" xmlns:xlink="http://www.w3.org/1999/xlink" viewBox="0 0 350 330">
  <defs>
    <clipPath id="window">
      <path d="M275,225.43H257.87a17.6,17.6,0,0,1-17.52-17.58V170a17.6,17.6,0,0,1,17.52-17.58H275A17.6,17.6,0,0,1,292.51,170v37.83A17.61,17.61,0,0,1,275,225.43Z"/>
    </clipPath>
  </defs>
    <g id="airshipScene" style="opacity:0">
      <animate attributeType="CSS"
        id="airshipShow"
        attributeName="opacity"
        values="0; 1"
        begin="indefinite"
        dur="0.01s"
        calcMode="discrete"
        fill="freeze"
        restart="never"
      />
      <g id="airship">
        <animate attributeType="CSS"
          id="airshipHide"
          attributeName="opacity"
          values="1; 0"
          keySplines="0 0.32 0.41 1"
          begin="airshipShow.end + 2.0s"
          dur="1.0s"
          calcMode="spline"
          fill="freeze"
        />
        <g id="cabine" transform="translate(171, 219)">
          <animateTransform
            attributeName="transform"
            type="translate"
            values="0, 0; 0, -2.5; 0, 0"
            calcMode="spline"
            keySplines="0 0.32 0.41 1; 0 0.32 0.41 1"
            dur="1.2s"
            fill="freeze"
            additive="sum"
            repeatCount="indefinite"
            repeatDur="3s"
            begin="airshipShow.end + 0.05s"
          />
          <animateTransform
            attributeName="transform"
            type="scale"
            values="1, 1; 1, 0.9; 1, 1;"
            calcMode="spline"
            keySplines="0 0.32 0.41 1; 0 0.32 0.41 1"
            dur="1.2s"
            fill="freeze"
            additive="sum"
            repeatCount="indefinite"
            repeatDur="3s"
            begin="airshipShow.end + 0.05s"
          />
          <animateTransform
            attributeName="transform"
            type="skewX"
            values="0; 6; 0"
            calcMode="spline"
            keySplines="0 0.32 0.41 1; 0 0.32 0.41 1"
            dur="1.2s"
            fill="freeze"
            additive="sum"
            repeatCount="indefinite"
            repeatDur="3s"
            begin="airshipShow.end + 0.05s"
          />
          <g transform="translate(-171, -219)">
            <path d="M175.44,249.28h48.36a13.27,13.27,0,0,0,13-10.65l3.74-18.32H172.36v25.89A3.09,3.09,0,0,0,175.44,249.28Z" fill="none" stroke="#fff" stroke-linecap="round" stroke-linejoin="round" stroke-width="2"/>
            <path d="M235.79,241.69h-9.22a8.31,8.31,0,0,1-8.28-8.31V220.31" fill="none" stroke="#fff" stroke-linecap="round" stroke-miterlimit="10" stroke-width="2"/>
            <g id="windowCabineInsideGroup">
              <animate attributeType="CSS"
                id="windowMoveHide"
                attributeName="opacity"
                values="1; 0"
                dur="0.1s"
                begin="airshipHide.begin"
                calcMode="discrete"
                fill="freeze"
              />
              <path d="M204.25,231.88h-2.05a3.45,3.45,0,0,0-3.43,3.45v2.92a3.45,3.45,0,0,0,3.43,3.45h2.05a3.45,3.45,0,0,0,3.43-3.45v-2.92A3.44,3.44,0,0,0,204.25,231.88Z" fill="none" stroke="#fff" stroke-linecap="round" stroke-linejoin="round" stroke-width="2"/>
            </g>
            <path d="M185.64,231.88h-2.05a3.45,3.45,0,0,0-3.43,3.45v2.92a3.45,3.45,0,0,0,3.43,3.45h2.05a3.45,3.45,0,0,0,3.43-3.45v-2.92A3.45,3.45,0,0,0,185.64,231.88Z" fill="none" stroke="#fff" stroke-linecap="round" stroke-linejoin="round" stroke-width="2"/>
          </g>
        </g>
        <g id="taleBack">
          <animateTransform
            attributeName="transform"
            type="translate"
            values="0 -3; 0 3; 0 -3;"
            calcMode="spline"
            keySplines="0 0.32 0.41 1; 0 0.32 0.41 1"
            dur="1.2s"
            repeatCount="indefinite"
            repeatDur="3s"
            begin="airshipShow.end + 0.05s"
          />
          <path d="M123.23,173.34h9.16a3.29,3.29,0,0,1,3.29,3.3v5.71a3.29,3.29,0,0,1-3.29,3.3H115.57a1.32,1.32,0,0,1-1.32-1.32v-2a9,9,0,0,1,9-9" fill="#068e4d"/>
          <path d="M123.23,173.34h9.16a3.29,3.29,0,0,1,3.29,3.3v5.71a3.29,3.29,0,0,1-3.29,3.3H115.57a1.32,1.32,0,0,1-1.32-1.32v-2A9,9,0,0,1,123.23,173.34Z" fill="none" stroke="#fff" stroke-linecap="round" stroke-linejoin="round" stroke-width="2"/>
          <path d="M123.23,207.39h9.16a3.29,3.29,0,0,0,3.29-3.3v-5.71a3.29,3.29,0,0,0-3.29-3.3H115.57a1.32,1.32,0,0,0-1.32,1.32v2a9,9,0,0,0,9,9" fill="#068e4d"/>
          <path d="M123.23,207.39h9.16a3.29,3.29,0,0,0,3.29-3.3v-5.71a3.29,3.29,0,0,0-3.29-3.3H115.57a1.32,1.32,0,0,0-1.32,1.32v2A9,9,0,0,0,123.23,207.39Z" fill="none" stroke="#fff" stroke-linecap="round" stroke-linejoin="round" stroke-width="2"/>
        </g>
        <g id="body">
          <path d="M205,227.08c43.38,0,74.86-15.55,74.86-37s-31.48-37-74.86-37c-27.94,0-55.36,13.53-73.46,24.87a14.3,14.3,0,0,0,0,24.21C149.63,213.54,177.06,227.08,205,227.08Z" fill="none" stroke="#fff" stroke-width="2"/>
          <path d="M205,227.08c43.38,0,74.86-15.55,74.86-37s-31.48-37-74.86-37c-27.94,0-55.36,13.53-73.46,24.87a14.3,14.3,0,0,0,0,24.21c18.09,11.33,45.52,24.87,73.46,24.87" fill="#068e4d"/>
          <g>
            <path d="M205,176.09c-28.23,0-56.07,5.76-72.81,10-3.95,1-6,2.66-6.08,4.34A12.93,12.93,0,0,1,132.18,179c16.74-10.5,44.58-24.68,72.81-24.68,44.81,0,73.64,16,73.64,35.75,0,0.12,0,.24,0,0.37-0.37-7.95-29.1-14.37-73.63-14.37" fill="#36e69a">
            <animate
              attributeName="d"
              attributeType="XML"
              values="M199.999 179C172 181 153.24 183.76 136.5 188C132.55 189 126.079 191.32 125.999 193C125.918 190.729 126.547 185.907 127.613 183.901C128.678 181.894 130.254 180.204 132.181 179C148.921 168.5 176.761 154.32 204.991 154.32C249.801 154.32 278.631 170.32 278.631 190.07C278.631 190.19 278.369 193.63 278.499 193.5C276.869 185.63 249.529 179 204.999 179;
                M205.002 176.09C176.772 176.09 148.932 181.85 132.192 186.09C128.242 187.09 126.192 188.75 126.112 190.43C126.03 188.159 126.548 185.907 127.614 183.901C128.68 181.894 130.255 180.204 132.182 179C148.922 168.5 176.762 154.32 204.992 154.32C249.802 154.32 278.632 170.32 278.632 190.07C278.632 190.19 278.632 190.31 278.632 190.44C278.262 182.49 249.532 176.07 205.002 176.07;
                M199.999 179C172 181 153.24 183.76 136.5 188C132.55 189 126.079 191.32 125.999 193C125.918 190.729 126.547 185.907 127.613 183.901C128.678 181.894 130.254 180.204 132.181 179C148.921 168.5 176.761 154.32 204.991 154.32C249.801 154.32 278.631 170.32 278.631 190.07C278.631 190.19 278.369 193.63 278.499 193.5C276.869 185.63 249.529 179 204.999 179;"
              dur="1.2s"
              repeatCount="indefinite"
              calcMode="spline"
              keySplines="0 0.32 0.41 1; 0 0.32 0.41 1"
              repeatDur="3s"
              begin="airshipShow.end + 0.05s"
            />
            </path>
            <path d="M132.18,195.12c16.74,4.27,44.58,10,72.81,10,44.14,0,72.75-6.32,73.6-14.18-0.86,19.34-29.45,34.86-73.6,34.86-28.23,0-56.07-14.19-72.81-24.68a12.88,12.88,0,0,1-6-10.18c0.26,1.61,2.26,3.18,6,4.14" fill="#068e4d">
            <animate
              attributeName="d"
              attributeType="XML"
              values="M123.23 176.34H132.39C132.823 176.34 133.252 176.425 133.651 176.591C134.051 176.757 134.414 177.001 134.72 177.307C135.026 177.614 135.268 177.978 135.432 178.378C135.597 178.778 135.681 179.207 135.68 179.64V185.35C135.681 185.783 135.597 186.212 135.432 186.612C135.268 187.012 135.026 187.376 134.72 187.683C134.414 187.989 134.051 188.233 133.651 188.399C133.252 188.565 132.823 188.65 132.39 188.65H115.57C115.22 188.65 114.884 188.511 114.637 188.263C114.389 188.016 114.25 187.68 114.25 187.33V185.33C114.25 182.943 115.198 180.654 116.886 178.966C118.574 177.278 120.863 176.33 123.25 176.33;
                M133.001 192C149.741 196.27 176.761 202.5 204.991 202.5C249.131 202.5 277.65 195.36 278.5 187.5C285.5 208.5 249.141 227 204.991 227C176.761 227 148.819 214.38 134.5 202.5C132.76 201.405 128.989 198.53 127.945 196.759C126.901 194.988 125.5 190.5 126.001 188.5C126.501 189 129.261 191.04 133.001 192Z;
                M123.23 176.34H132.39C132.823 176.34 133.252 176.425 133.651 176.591C134.051 176.757 134.414 177.001 134.72 177.307C135.026 177.614 135.268 177.978 135.432 178.378C135.597 178.778 135.681 179.207 135.68 179.64V185.35C135.681 185.783 135.597 186.212 135.432 186.612C135.268 187.012 135.026 187.376 134.72 187.683C134.414 187.989 134.051 188.233 133.651 188.399C133.252 188.565 132.823 188.65 132.39 188.65H115.57C115.22 188.65 114.884 188.511 114.637 188.263C114.389 188.016 114.25 187.68 114.25 187.33V185.33C114.25 182.943 115.198 180.654 116.886 178.966C118.574 177.278 120.863 176.33 123.25 176.33;"
              dur="1.2s"
              repeatCount="indefinite"
              calcMode="spline"
              keySplines="0 0.32 0.41 1; 0 0.32 0.41 1"
              repeatDur="3s"
              begin="airshipShow.end + 0.05s"
            />
            </path>
            <path d="M132.18,186.12c16.74-4.27,44.58-10,72.81-10,44.53,0,73.26,6.43,73.61,14.38,0,0.17,0,.34,0,0.51-0.85,7.86-29.45,14.17-73.6,14.17-28.23,0-56.07-5.76-72.81-10-3.79-1-5.79-2.53-6-4.13l0-.51c0.13-1.69,2.15-3.36,6.1-4.37" fill="#25b774">
              <animate
                attributeName="d"
                attributeType="XML"
                values="M131.99 189C148.73 184.73 176.57 179 204.8 179C249.33 179 278.06 185.43 278.41 193.38C278.41 193.55 278.41 193.72 278.41 193.89C277.56 201.75 248.96 208.06 204.81 208.06C176.58 208.06 148.74 202.3 132 198.06C128.21 197.06 126.21 195.53 126 193.93V193.42C126.13 191.73 128.15 190.06 132.1 189.05;
                  M131.992 183C148.732 178.73 176.572 173 204.802 173C249.332 173 278.062 179.43 278.412 187.38C278.412 187.55 278.412 187.72 278.412 187.89C277.562 195.75 248.962 202.06 204.812 202.06C176.582 202.06 148.742 196.3 132.002 192.06C128.212 191.06 126.212 189.53 126.002 187.93V187.42C126.132 185.73 128.152 184.06 132.102 183.05;
                  M131.99 189C148.73 184.73 176.57 179 204.8 179C249.33 179 278.06 185.43 278.41 193.38C278.41 193.55 278.41 193.72 278.41 193.89C277.56 201.75 248.96 208.06 204.81 208.06C176.58 208.06 148.74 202.3 132 198.06C128.21 197.06 126.21 195.53 126 193.93V193.42C126.13 191.73 128.15 190.06 132.1 189.05;"
                dur="1.2s"
                repeatCount="indefinite"
                calcMode="spline"
                keySplines="0 0.32 0.41 1; 0 0.32 0.41 1"
                repeatDur="3s"
                begin="airshipShow.end + 0.05s"
              />
            </path>
          </g>
        </g>
        <g id="windowCabineOutside"  transform="translate(197, 230)" style="opacity:0">
          <animate attributeType="CSS"
            id="windowMoveShow"
            attributeName="opacity"
            values="0; 1; 0"
            keyTimes="0; 0.1; 1"
            dur="0.1s"
            begin="windowMoveHide.begin"
            calcMode="linear"
            fill="freeze"
          />
          <animateTransform
            attributeName="transform"
            type="scale"
            values="1, 1; 4, 5"
            calcMode="spline"
            keySplines="0 0.32 0.41 1"
            dur="0.1s"
            begin="windowMoveShow.begin"
            fill="freeze"
            additive="sum"
          />
          <animateTransform
            attributeName="transform"
            type="translate"
            values="0, 0; 5, -11"
            calcMode="spline"
            keySplines="0 0.32 0.41 1"
            dur="0.1s"
            begin="windowMoveShow.begin"
            fill="freeze"
            additive="sum"
          />
          <path transform="translate(-197, -230)" d="M204.25,231.88h-2.05a3.45,3.45,0,0,0-3.43,3.45v2.92a3.45,3.45,0,0,0,3.43,3.45h2.05a3.45,3.45,0,0,0,3.43-3.45v-2.92A3.44,3.44,0,0,0,204.25,231.88Z" fill="none" stroke="#fff" stroke-linecap="round" stroke-linejoin="round" stroke-width="2"></path>
        </g>
        <g id="taleFront">
          <animateTransform
            attributeName="transform"
            type="translate"
            values="0 3; 0 -3; 0 3;"
            calcMode="spline"
            keySplines="0 0.32 0.41 1;0 0.32 0.41 1"
            dur="1.2s"
            repeatCount="indefinite"
            repeatDur="3s"
            begin="airshipShow.end + 0.05s"
          />
          <path d="M123.23,173.34h9.16a3.29,3.29,0,0,1,3.29,3.3v5.71a3.29,3.29,0,0,1-3.29,3.3H115.57a1.32,1.32,0,0,1-1.32-1.32v-2a9,9,0,0,1,9-9" fill="#068e4d"/>
          <path d="M123.23,173.34h9.16a3.29,3.29,0,0,1,3.29,3.3v5.71a3.29,3.29,0,0,1-3.29,3.3H115.57a1.32,1.32,0,0,1-1.32-1.32v-2A9,9,0,0,1,123.23,173.34Z" fill="none" stroke="#fff" stroke-linecap="round" stroke-linejoin="round" stroke-width="2"/>
          <path d="M123.23,207.39h9.16a3.29,3.29,0,0,0,3.29-3.3v-5.71a3.29,3.29,0,0,0-3.29-3.3H115.57a1.32,1.32,0,0,0-1.32,1.32v2a9,9,0,0,0,9,9" fill="#068e4d"/>
          <path d="M123.23,207.39h9.16a3.29,3.29,0,0,0,3.29-3.3v-5.71a3.29,3.29,0,0,0-3.29-3.3H115.57a1.32,1.32,0,0,0-1.32,1.32v2A9,9,0,0,0,123.23,207.39Z" fill="none" stroke="#fff" stroke-linecap="round" stroke-linejoin="round" stroke-width="2"/>
        </g>
      </g>
      <g id="bottomCloud" style="opacity:0">
        <animate attributeType="CSS"
          attributeName="opacity"
          values="1; 0.8; 0"
          keyTimes="0; 0.9; 1"
          dur="1.3s"
          calcMode="linear"
          begin="bottomCloudMainPart.begin"
          fill="freeze"
        />
        <line x1="68.95" y1="107.8" x2="131.86" y2="107.8" transform="translate(180, 0)" fill="none" stroke="#fff" stroke-linecap="round" stroke-miterlimit="10" stroke-width="2">
          <animateTransform
            id="bottomCloudChildPart"
            attributeName="transform"
            type="translate"
            values="0, 0; -250, 0"
            calcMode="linear"
            dur="1.5s"
            fill="freeze"
            begin="bottomCloudMainPart.begin + 0.05s"
            additive="sum"
          />
        </line>
        <g transform="translate(200,0)">
          <animateTransform
            id="bottomCloudMainPart"
            attributeName="transform"
            type="translate"
            values="0, 0; -250, 0"
            calcMode="linear "
            dur="1.4s"
            fill="freeze"
            begin="airshipShow.end + 0.1s"
            additive="sum"
          />
          <path d="M41.77,97.54H77.06a12.4,12.4,0,1,1,24.8,0h17.93" fill="none" stroke="#fff" stroke-linecap="round" stroke-miterlimit="10" stroke-width="2"/>
        </g>
      </g>
      <g id="topCloud" style="opacity:0">
        <animate attributeType="CSS"
          attributeName="opacity"
          values="1; 0.6; 0"
          keyTimes="0; 0.9; 1"
          dur="1.5s"
          calcMode="linear"
          begin="topCloudMainPart.begin"
          fill="freeze"
        />
        <line x1="258.96" y1="93.19" x2="298.74" y2="93.19" transform="translate(90,0)" fill="none" stroke="#fff" stroke-linecap="round" stroke-miterlimit="10" stroke-width="2">
          <animateTransform
            id="topCloudChildPart"
            attributeName="transform"
            type="translate"
            values="0, 0; -300, 0"
            calcMode="linear"
            dur="1.7s"
            fill="freeze"
            begin="topCloudMainPart.begin + 0.05s"
            additive="sum"
          />
        </line>
        <g transform="translate(100,0)">
          <animateTransform
            id="topCloudMainPart"
            attributeName="transform"
            type="translate"
            values="0, 0; -300, 0"
            calcMode="linear"
            dur="1.6s"
            fill="freeze"
            begin="bottomCloudMainPart.begin + 0.6s"
            additive="sum"
          />
          <path d="M278.75,82.91H251.39a12.4,12.4,0,1,0-24.8,0H208.65" fill="none" stroke="#fff" stroke-linecap="round" stroke-miterlimit="10" stroke-width="2"/>
          <line x1="287.01" y1="82.91" x2="309.21" y2="82.91" fill="none" stroke="#fff" stroke-linecap="round" stroke-miterlimit="10" stroke-width="2"/>
        </g>
      </g>
      <g id="smoge">
        <animate attributeType="CSS"
          attributeName="opacity"
          values="1; 0"
          keySplines="0 0.32 0.41 1"
          begin="airshipHide.begin"
          dur="1.0s"
          calcMode="spline"
          fill="freeze"
        />
        <line x1="106.25" y1="179.49" x2="84.05" y2="179.49" fill="none" stroke="#fff" stroke-linecap="round" stroke-miterlimit="10" stroke-width="2">
          <animate attributeName="x2"
            values="84.05;88.05;84.05"
            dur="0.2s"
            repeatCount="indefinite"
            repeatDur="3s"
            begin="airshipShow.end"
          />
        </line>
        <line x1="106.25" y1="201.23" x2="84.05" y2="201.23" fill="none" stroke="#fff" stroke-linecap="round" stroke-miterlimit="10" stroke-width="2">
          <animate attributeName="x2"
            values="84.05;88.55;84.05"
            dur="0.18s"
            repeatCount="indefinite"
            repeatDur="3s"
            begin="airshipShow.end"
          />
        </line>
        <line x1="106.25" y1="190.98" x2="68.77" y2="190.98" fill="none" stroke="#fff" stroke-linecap="round" stroke-miterlimit="10" stroke-width="2">
          <animate attributeName="x2"
            values="68.77;72.05;68.77"
            dur="0.25s"
            repeatCount="indefinite"
            repeatDur="3s"
            begin="airshipShow.end"
          />
        </line>
      </g>
      <g id="mountains">
        <path  d="M 289.94 329 L 244.88 329 L 212.8 298 C 212.459 298 212.027 298 211.58 298 C 211.133 298 210.701 298 210.36 298 L 200.16 308 C 199.848 308 199.448 308 199.035 308 C 198.622 308 198.222 308 197.91 308 C 191.577 302 185.243 295 178.91 288 C 178.477 288 177.927 288 177.36 288 C 176.793 288 176.243 288 175.81 288 L 149.39 314 C 149.079 314 148.679 314 148.265 314 C 147.851 314 147.451 314 147.14 314 C 146.263 313 145.387 312 144.51 311 C 144.195 311 143.782 311 143.355 311 C 142.928 311 142.515 312 142.2 312 L 124.63 329 L 80.78 329" fill="none" stroke="#fff" stroke-linecap="round" stroke-miterlimit="10" stroke-width="2">
        <animate
          attributeName="d"
          attributeType="XML"
          values="M 289.94 329 L 244.88 329 L 212.8 298 C 212.459 298 212.027 298 211.58 298 C 211.133 298 210.701 298 210.36 298 L 200.16 308 C 199.848 308 199.448 308 199.035 308 C 198.622 308 198.222 308 197.91 308 C 191.577 302 185.243 295 178.91 288 C 178.477 288 177.927 288 177.36 288 C 176.793 288 176.243 288 175.81 288 L 149.39 314 C 149.079 314 148.679 314 148.265 314 C 147.851 314 147.451 314 147.14 314 C 146.263 313 145.387 312 144.51 311 C 144.195 311 143.782 311 143.355 311 C 142.928 311 142.515 312 142.2 312 L 124.63 329 L 80.78 329;
                  M 289.956 329 L 244.927 329 L 212.616 329 C 212.067 329 211.792 329 211.508 329 C 211.224 329 210.93 329 210.345 329 L 200.084 329 C 198.813 329 198.818 329 197.828 329 C 191.52 329 185.211 329 178.903 329 C 178.461 329 178.091 329 177.749 329 C 177.406 329 177.091 329 176.757 329 C 176.424 329 176.072 329 175.657 329 L 149.379 329 C 148.169 329 148.155 329 147.057 329 C 146.206 329 145.354 329 144.503 329 C 144.126 329 143.876 329 143.666 329 C 143.455 329 143.285 329 143.067 329 C 142.849 329 142.585 329 142.186 329 L 125.711 329 L 80.769 329"
          dur="0.4s"
          begin="windowMoveShow.begin"
          repeatCount="1"
          calcMode="spline"
          keySplines="0 0.32 0.41 1"
          fill="freeze"
        />
        </path>
      </g>
    </g>
    <g id="armchairScene">
      <g id="ski" style="opacity:0" transform="translate(-50, 0)">
        <animate attributeType="CSS"
          attributeName="opacity"
          values="0; 1"
          keySplines="0 0.32 0.41 1"
          begin="airshipHide.begin + 0.3s"
          dur="0.3s"
          calcMode="spline"
          fill="freeze"
        />
        <animateTransform
          attributeName="transform"
          type="translate"
          values="-50, 0; 0, 0"
          calcMode="spline"
          keySplines="0 0.32 0.41 1"
          begin="airshipHide.begin + 0.2s"
          dur="0.4s"
          fill="freeze"
          additive="replace"
          repeatCount="1"
        />
        <path d="M91.14,327.79a2.2,2.2,0,0,1-2-2.36l13.66-193.17c1.1-15.49-4.8-21.92-8.75-24.47a1.35,1.35,0,0,1,.53-2.45C103,104,122.18,104,120,134.19L106.43,326.67a2.2,2.2,0,0,1-2.35,2Z" fill="#fff"/>
        <path d="M124.5,328.17a2.2,2.2,0,0,1-2.17-2.23l2.24-193.63c0.19-15.53-6.07-21.61-10.16-23.91a1.35,1.35,0,0,1,.39-2.47c8.36-1.9,27.49-3,27.15,27.28l-2.25,192.93a2.2,2.2,0,0,1-2.22,2.18Z" fill="#fff"/>
      </g>
      <g id="window" transform="translate(197, 230)" style="opacity:0">
        <animate attributeType="CSS"
          attributeName="opacity"
          values="0; 1"
          begin="windowMoveShow.end"
          dur="0.1s"
          calcMode="linear"
          fill="freeze"
        />
        <animateTransform
          attributeName="transform"
          type="translate"
          values="0, 0; -2, 8; 0, 0"
          calcMode="linear"
          keyTimes="0; 0.01; 1"
          dur="0.1s"
          begin="windowMoveShow.end-0.01s"
          fill="freeze"
          additive="sum"
          begin="airshipShow.end"
        />
        <animateTransform
          attributeName="transform"
          type="scale"
          values="1, 1; 0.68, 0.68; 1, 1"
          calcMode="linear"
          keyTimes="0; 0.01; 1"
          dur="0.1s"
          begin="windowMoveShow.end-0.01s"
          fill="freeze"
          additive="sum"
        />
        <path transform="translate(-197, -230)" d="M275,225.43H257.87a17.6,17.6,0,0,1-17.52-17.58V170a17.6,17.6,0,0,1,17.52-17.58H275A17.6,17.6,0,0,1,292.51,170v37.83A17.61,17.61,0,0,1,275,225.43Z" fill="none" stroke="#fff" stroke-width="2"/>
      </g>
      <g clip-path="url(#window)" style="opacity:0">
        <animate attributeType="CSS"
          attributeName="opacity"
          values="0; 1"
          begin="airshipHide.begin-0.1s"
          dur="0.1s"
          calcMode="discrete"
          fill="freeze"
        />
        <g transform="scale(0.5 0.5) translate(295 170)">
          <animate attributeType="CSS"
            attributeName="opacity"
            values="1; 1; 0"
            keyTimes="0; 0.7; 1"
            begin="airshipHide.begin + 0.2s"
            dur="2.8s"
            calcMode="linear"
            fill="freeze"
            repeatCount="indefinite"
          />
          <animateTransform
            attributeName="transform"
            type="translate"
            values="295, 170; -85, 170"
            calcMode="linear"
            dur="2.8s"
            begin="airshipHide.begin + 0.2s"
            repeatCount="indefinite"
            additive="sum"
            fill="freeze"
          />
          <line x1="28.18" y1="38.34" x2="91.09" y2="38.34" fill="none" stroke="#fff" stroke-linecap="round" stroke-miterlimit="10" stroke-width="2"/>
          <path d="M41.77,97.54H77.06a12.4,12.4,0,1,1,24.8,0h17.93" transform="translate(-40.77 -69.46)" fill="none" stroke="#fff" stroke-linecap="round" stroke-miterlimit="10" stroke-width="2"/>
          <line x1="218.19" y1="23.72" x2="257.97" y2="23.72" fill="none" stroke="#fff" stroke-linecap="round" stroke-miterlimit="10" stroke-width="2"/>
          <path d="M278.75,82.91H251.39a12.4,12.4,0,1,0-24.8,0H208.65" transform="translate(-40.77 -69.46)" fill="none" stroke="#fff" stroke-linecap="round" stroke-miterlimit="10" stroke-width="2"/>
          <line x1="246.24" y1="13.45" x2="268.43" y2="13.45" fill="none" stroke="#fff" stroke-linecap="round" stroke-miterlimit="10" stroke-width="2"/>
        </g>
      </g>
      <g id="chair" style="opacity:0" transform="translate(-50, 0)">
        <animate attributeType="CSS"
          attributeName="opacity"
          values="0; 1"
          keySplines="0 0.32 0.41 1"
          begin="airshipHide.begin + 0.2s"
          dur="0.3s"
          calcMode="spline"
          fill="freeze"
        />
        <animateTransform
          attributeName="transform"
          type="translate"
          values="-50, 0; 0, 0"
          calcMode="spline"
          keySplines="0 0.32 0.41 1"
          begin="airshipHide.begin + 0.2s"
          dur="0.4s"
          fill="freeze"
          additive="replace"
          repeatCount="1"
        />
        <path d="M257.5,259.82H196.76V245.63h55.09a9.92,9.92,0,0,1,9.9,9.93,4.26,4.26,0,0,1-4.25,4.25" fill="#a67ee5"/>
        <path d="M257.5,259.82H196.76V245.63h55.09a9.92,9.92,0,0,1,9.9,9.93A4.26,4.26,0,0,1,257.5,259.82Z" fill="none" stroke="#fff" stroke-miterlimit="10" stroke-width="2"/>
        <polygon points="185.47 328.31 171.5 328.31 165.19 286.72 179.16 286.72 185.47 328.31" fill="#a67ee5"/>
        <polygon points="185.47 328.31 171.5 328.31 165.19 286.72 179.16 286.72 185.47 328.31" fill="none" stroke="#fff" stroke-miterlimit="10" stroke-width="2"/>
        <polygon points="235.03 328.31 221.06 328.31 214.76 286.72 228.72 286.72 235.03 328.31" fill="#a67ee5"/>
        <polygon points="235.03 328.31 221.06 328.31 214.76 286.72 228.72 286.72 235.03 328.31" fill="none" stroke="#fff" stroke-miterlimit="10" stroke-width="2"/>
        <path d="M281.33,272.45H225.44a5.59,5.59,0,0,1-5.53-4.77l-10.86-72.24a17.71,17.71,0,0,0-12.49-31.31H141.48L141.16,267l15.77,23.35,47.19,8.39a12.3,12.3,0,0,0,4.22.75h73a13.53,13.53,0,0,0,0-27.06" fill="#a67ee5"/>
        <path d="M281.33,272.45H225.44a5.59,5.59,0,0,1-5.53-4.77l-10.86-72.24a17.71,17.71,0,0,0-12.49-31.31H141.48L141.16,267l15.77,23.35,47.19,8.39a12.3,12.3,0,0,0,4.22.75h73A13.53,13.53,0,0,0,281.33,272.45Z" fill="none" stroke="#fff" stroke-miterlimit="10" stroke-width="2"/>
        <path d="M162.42,267.69l-10.86-72.24a17.71,17.71,0,1,0-29-13.61,18,18,0,0,0,.79,5.25L138.65,289a12.36,12.36,0,0,0,12.21,10.54h73a13.53,13.53,0,0,0,0-27.05H167.95a5.62,5.62,0,0,1-5.53-4.78" fill="#a67ee5"/>
        <path d="M162.42,267.69l-10.86-72.24a17.71,17.71,0,1,0-29-13.61,18,18,0,0,0,.79,5.25L138.65,289a12.36,12.36,0,0,0,12.21,10.54h73a13.53,13.53,0,0,0,0-27.05H167.95A5.62,5.62,0,0,1,162.42,267.69Z" fill="none" stroke="#fff" stroke-miterlimit="10" stroke-width="2"/>
        <path d="M206.26,259.82h-72l-2.13-14.19H200.6a9.92,9.92,0,0,1,9.9,9.93,4.26,4.26,0,0,1-4.25,4.25" fill="#a67ee5"/>
        <path d="M206.26,259.82h-72l-2.13-14.19H200.6a9.92,9.92,0,0,1,9.9,9.93A4.26,4.26,0,0,1,206.26,259.82Z" fill="none" stroke="#fff" stroke-miterlimit="10" stroke-width="2"/>
        <line x1="151.57" y1="195.44" x2="209.05" y2="195.44" fill="none" stroke="#fff" stroke-linecap="round" stroke-miterlimit="10" stroke-width="2"/>
      </g>
      <g id="plant" style="opacity:0" transform="translate(-50, 0)">
        <animate attributeType="CSS"
          attributeName="opacity"
          values="0; 1"
          keySplines="0 0.32 0.41 1"
          begin="airshipHide.begin + 0.4s"
          dur="0.3s"
          calcMode="spline"
          fill="freeze"
        />
        <animateTransform
          attributeName="transform"
          type="translate"
          values="-50, 0; 0, 0"
          calcMode="spline"
          keySplines="0 0.32 0.41 1"
          begin="airshipHide.begin + 0.2s"
          dur="0.4s"
          fill="freeze"
          additive="replace"
          repeatCount="1"
        />
        <g>
          <animateTransform
            id="plantInitialRotate"
            attributeName="transform"
            type="rotate"
            values="-7 150 330; 7 150 330; -3 150 330; 3 150 330; 0 150 330"
            calcMode="spline"
            keySplines="0 0.32 0.41 1;0 0.32 0.41 1;0 0.32 0.41 1;0 0.32 0.41 1"
            begin="airshipHide.begin + 0.4s"
            dur="0.8s"
            fill="freeze"
            additive="replace"
            repeatCount="1"
          />
          <animateTransform
            attributeName="transform"
            type="rotate"
            values="0 150 330; 1 150 330; -1 150 330; 1 150 330; 0 150 330"
            calcMode="spline"
            keySplines="0 0.32 0.41 1; 0 0.32 0.41 1; 0 0.32 0.41 1; 0 0.32 0.41 1"
            begin="plantInitialRotate.end + 0.35s"
            dur="1.5s"
            fill="freeze"
            additive="replace"
            repeatCount="indefinite"
          />
          <path d="M79.18,194A131,131,0,0,1,94.77,220.9a255,255,0,0,1-20.08-23.55,259,259,0,0,1-17.07-25.88A131.72,131.72,0,0,1,79.18,194" fill="#36e69a"/>
          <path d="M80.94,214.39a127.19,127.19,0,0,1,22.8,20.49A242.09,242.09,0,0,1,77.9,219.17a235.86,235.86,0,0,1-23.42-18.7,119.82,119.82,0,0,1,26.46,13.92" fill="#36e69a"/>
          <path d="M93.66,205.48a258.38,258.38,0,0,0,10.08,29.39,125.63,125.63,0,0,0-4.5-30.52,135.9,135.9,0,0,0-12.06-29.44,260.33,260.33,0,0,0,6.47,30.57" fill="#36e69a"/>
          <path d="M107.32,213.52a250.14,250.14,0,0,0,2.06,30.67,119.93,119.93,0,0,0,3.76-30.05,131.24,131.24,0,0,0-4-31.36,238.1,238.1,0,0,0-1.87,30.74" fill="#25b774"/>
          <path d="M83.08,229.56a121.93,121.93,0,0,1,26.29,14.64A225.91,225.91,0,0,1,81.21,235a228.11,228.11,0,0,1-26.37-12.69,113.61,113.61,0,0,1,28.25,7.29" fill="#25b774"/>
          <path d="M88.06,243.83A118.11,118.11,0,0,1,115.62,255a211,211,0,0,1-28.78-5.6,220.87,220.87,0,0,1-27.42-9.33,114,114,0,0,1,28.65,3.73" fill="#25b774"/>
          <path d="M118.71,224.79a238,238,0,0,0-3.1,30.25,117.11,117.11,0,0,0,8.82-28.54,127.44,127.44,0,0,0,1.42-31.19,213.92,213.92,0,0,0-7.15,29.48" fill="#25b774"/>
          <path d="M98.86,262a118.24,118.24,0,0,1,27.07,12.34,212.3,212.3,0,0,1-28.53-6.79,220.78,220.78,0,0,1-27-10.45A114.06,114.06,0,0,1,98.86,262" fill="#068e4d"/>
          <path d="M130.27,244.29a236.56,236.56,0,0,0-4.34,30.1,116.94,116.94,0,0,0,10-28.16,127.42,127.42,0,0,0,2.71-31.1,214.43,214.43,0,0,0-8.36,29.16" fill="#068e4d"/>
          <path d="M108.9,280.69a118.21,118.21,0,0,1,26.54,13.47,213.62,213.62,0,0,1-28.23-8,221.65,221.65,0,0,1-26.55-11.57,113.82,113.82,0,0,1,28.24,6.08" fill="#068e4d"/>
          <path d="M141,264.26a236.09,236.09,0,0,0-5.58,29.9,117.46,117.46,0,0,0,11.15-27.73,127.2,127.2,0,0,0,4-31A214.24,214.24,0,0,0,141,264.26" fill="#068e4d"/>
          <path d="M92.62,217.67A529.26,529.26,0,0,1,149.48,328" fill="none" stroke="#36e69a" stroke-linecap="round" stroke-linejoin="round" stroke-width="2"/>
        </g>
      </g>
    </g>
</svg>
